# xmcd CD database file
#
# Track frame offsets:
#	150
#	14313
#	39960
#	50777
#	80942
#	115165
#	139577
#	159729
#	194090
#	203187
#	228937
#	238442
#	252268
#	270319
#	287591
#	294717
#	312069
#
# Disc length: 4287 seconds
#
# Revision: 3
# Processed by: cddbd v1.5.2PL0 Copyright (c) Steve Scherf et al.
# Submitted via: CDex 1.51
#
DISCID=fd10bd11
DTITLE='' Reader's Digest '' - «La musique de la nature» (2/4)
DYEAR=1999
DGENRE=New Age
TTITLE0=Jean C Roché «Concert d'oiseaux au bord du delta»
TTITLE1=Debussy «Reflets dans l'eau», de ''Images''
TTITLE2=Les éditions Morrisset ?JLa voix des baleines»
TTITLE3=Ravel «Ondine», de ''Gaspard de la nuit''
TTITLE4=Jean C Roché «Pluie du soir sur la forêt»
TTITLE5=Chopin «Prelude N° 15 en ré majeur ''Goutte de pluie''»
TTITLE6=Les éditions Morisset «Mélodie des vagues»
TTITLE7=Liszt «Jeux d'eau à la ville d'Este», des ''Années de pélerinage''
TTITLE8=Bauer Studios Ludwigsburg «Chant du ruisseau en montagne»
TTITLE9=Ravel «Jeux d'eau»
TTITLE10=Les éditions Morisset «La mer»
TTITLE11=Saint Saëns «Le cygne», du ''Carnaval des animaux''
TTITLE12=Bauer Studios Lidwigsburg «Moments de détente au bord du ruisseau»
TTITLE13=Debussy «Jardins sous la pluie», d' ''Estampes''
TTITLE14=Les éditions Morisset «Chant de baleines dans les profondeurs marines»
TTITLE15=Binge «Le moulin»
TTITLE16=Bauer Studion Lidwigsburg «Charme des vagues au crépuscule»
EXTD=YEAR: 1999
EXTT0=
EXTT1=
EXTT2=
EXTT3=
EXTT4=
EXTT5=
EXTT6=
EXTT7=
EXTT8=
EXTT9=
EXTT10=
EXTT11=
EXTT12=
EXTT13=
EXTT14=
EXTT15=
EXTT16=
PLAYORDER=
